<?xml version="1.0" standalone="no"?>
<!DOCTYPE svg PUBLIC "-//W3C//DTD SVG 20010904//EN"
 "http://www.w3.org/TR/2001/REC-SVG-20010904/DTD/svg10.dtd">
<svg version="1.0" xmlns="http://www.w3.org/2000/svg"
 width="530.000000pt" height="630.000000pt" viewBox="0 0 530.000000 630.000000"
 preserveAspectRatio="xMidYMid meet">

<g transform="translate(0.000000,630.000000) scale(0.100000,-0.100000)"
fill="#000000" stroke="none">
<path d="M2485 6103 c-404 -35 -829 -197 -1148 -437 -507 -382 -827 -956 -888
-1596 -22 -233 1 -516 62 -753 202 -783 826 -1407 1604 -1605 212 -54 317 -67
560 -67 243 0 348 13 560 67 724 184 1321 742 1558 1454 231 697 112 1449
-323 2039 -374 505 -948 831 -1579 895 -96 9 -314 11 -406 3z m386 -204 c241
-24 483 -92 693 -194 402 -194 740 -530 936 -930 236 -483 273 -1035 103
-1545 -105 -317 -275 -584 -520 -820 -241 -233 -503 -387 -827 -485 -607 -183
-1293 -61 -1805 323 -98 74 -277 246 -354 342 -501 621 -597 1470 -248 2183
198 403 534 737 937 932 334 162 724 231 1085 194z"/>
<path d="M2494 5646 c-124 -33 -193 -66 -296 -142 -196 -147 -304 -369 -313
-648 -8 -269 91 -487 263 -576 26 -14 49 -27 52 -30 19 -19 186 -17 243 3 130
46 242 155 317 310 38 78 97 237 125 337 1 3 4 12 8 20 14 36 37 152 48 240
13 111 7 243 -16 317 -51 168 -206 229 -431 169z"/>
<path d="M3433 5379 c-120 -57 -210 -181 -324 -444 -7 -16 -13 -32 -14 -35 -1
-3 -4 -12 -8 -20 -19 -47 -62 -189 -85 -280 -63 -254 -16 -467 132 -597 26
-23 68 -52 92 -63 43 -21 191 -43 199 -29 3 3 15 7 27 7 102 1 308 149 414
298 103 144 146 280 149 469 2 109 -2 144 -22 220 -44 169 -138 320 -259 415
-107 86 -205 105 -301 59z"/>
<path d="M1332 5087 c-117 -43 -320 -331 -395 -562 -40 -122 -48 -171 -48
-280 1 -178 51 -305 166 -421 116 -117 285 -186 401 -165 189 36 303 272 304
631 0 134 -39 401 -70 475 -5 11 -14 38 -21 60 -16 55 -64 141 -107 194 -59
72 -146 98 -230 68z"/>
<path d="M4220 4191 c-98 -31 -289 -163 -374 -259 -12 -13 -43 -47 -69 -75
-105 -113 -228 -317 -272 -453 -48 -147 -43 -258 16 -353 27 -44 42 -56 117
-93 83 -42 89 -43 196 -46 178 -6 300 37 418 147 63 58 145 168 161 216 5 16
13 35 18 40 6 9 41 120 54 175 2 8 4 15 5 15 2 0 10 60 14 100 2 17 7 38 11
48 14 32 -1 338 -19 395 -18 57 -63 115 -107 138 -30 15 -126 18 -169 5z"/>
<path d="M2445 4093 c-101 -23 -174 -66 -355 -212 -203 -163 -284 -215 -430
-274 -63 -25 -99 -45 -157 -85 -209 -145 -312 -410 -258 -667 43 -205 209
-399 410 -480 55 -22 91 -28 218 -36 196 -12 334 -39 376 -73 8 -6 16 -10 18
-8 6 4 126 -59 183 -97 71 -47 152 -85 215 -100 78 -20 227 -15 320 9 80 21
205 76 205 92 0 4 6 8 14 8 8 0 48 36 90 81 55 59 87 104 116 163 109 227 89
446 -64 685 -64 99 -108 191 -146 301 -18 52 -34 101 -35 110 -2 8 -4 17 -5
20 -1 3 -2 8 -1 12 0 4 -6 26 -15 50 -9 24 -18 54 -20 68 -11 52 -68 174 -110
230 -70 95 -180 163 -317 195 -58 14 -206 18 -252 8z"/>
<path d="M100 745 l0 -575 80 0 80 0 0 270 0 270 89 0 90 0 15 53 c8 28 18 64
21 80 l7 27 -111 0 -111 0 0 140 0 139 123 3 122 3 3 83 3 82 -206 0 -205 0 0
-575z"/>
<path d="M620 745 l0 -575 205 0 205 0 0 80 0 80 -125 0 -125 0 0 190 0 190
89 0 90 0 15 53 c8 28 18 64 21 80 l7 27 -111 0 -111 0 0 140 0 139 123 3 122
3 3 83 3 82 -206 0 -205 0 0 -575z"/>
<path d="M1140 745 l0 -575 80 0 80 0 2 371 3 372 88 -210 87 -211 0 -161 0
-161 75 0 75 0 0 575 0 575 -75 0 -75 0 -2 -212 -3 -213 -89 213 -89 212 -78
0 -79 0 0 -575z"/>
<path d="M1778 1291 l-33 -29 0 -510 c0 -565 -1 -553 64 -573 21 -6 99 -9 189
-7 l154 3 24 28 24 28 0 512 c0 470 -2 514 -18 533 -31 39 -55 44 -216 44
l-156 0 -32 -29z m262 -551 l0 -421 -67 3 -68 3 -3 405 c-1 223 0 411 3 417 3
9 27 13 70 13 l65 0 0 -420z"/>
<path d="M2320 745 l0 -575 75 0 75 0 2 442 3 442 53 -88 52 -88 0 -354 0
-354 80 0 80 0 0 352 0 351 48 81 47 81 3 -432 2 -433 80 0 80 0 0 575 0 576
-96 -3 -96 -3 -69 -125 c-38 -69 -72 -126 -76 -127 -5 -2 -40 54 -79 125 l-71
127 -96 3 -97 3 0 -576z"/>
<path d="M3110 745 l0 -575 205 0 205 0 0 80 0 80 -125 0 -125 0 0 190 0 189
91 3 92 3 22 78 23 77 -114 0 -114 0 0 140 0 140 125 0 125 0 0 85 0 85 -205
0 -205 0 0 -575z"/>
<path d="M3640 745 l0 -575 75 0 75 0 2 375 3 376 88 -210 87 -210 0 -165 0
-166 75 0 75 0 0 575 0 575 -75 0 -75 0 -2 -210 -3 -211 -86 208 -85 208 -77
3 -77 3 0 -576z"/>
<path d="M4370 1306 c0 -7 -29 -258 -65 -557 -36 -299 -65 -552 -65 -561 0
-16 10 -18 74 -18 84 0 78 -8 91 113 l6 57 93 0 93 0 9 -82 9 -83 78 -3 c58
-2 77 0 76 10 0 7 -30 265 -67 573 l-67 560 -133 3 c-108 2 -132 0 -132 -12z
m170 -502 c16 -133 30 -251 30 -263 0 -19 -5 -21 -65 -21 -64 0 -65 0 -65 28
0 21 56 502 61 522 3 12 11 -40 39 -266z"/>
<path d="M4890 745 l0 -575 180 0 180 0 0 80 0 80 -105 0 -105 0 0 495 0 495
-75 0 -75 0 0 -575z"/>
</g>
</svg>
